<svg width="482" height="692" viewBox="0 0 482 692" fill="none" xmlns="http://www.w3.org/2000/svg">
<g opacity="0.45">
<path d="M220.779 0L44.1542 92.1519L108.381 108.893C108.381 108.893 141.939 92.3861 164.58 84.4726C186.019 76.9794 197.994 70.4151 220.779 69.114C249.633 67.4662 281.296 84.5614 309.091 92.1519C337.868 100.011 365.29 108.893 365.29 108.893V176.625H397.403V92.1519M108.381 122.869V164.029C108.381 164.029 175.888 140.991 220.779 140.991C265.669 140.991 333.176 164.029 333.176 164.029V122.869C333.176 122.869 265.723 82.116 220.779 84.4726C174.239 86.9128 108.381 122.869 108.381 122.869Z" fill="url(#paint0_linear_4892_21847)"/>
<path fill-rule="evenodd" clip-rule="evenodd" d="M199.904 178.017C201.3 176.927 203.518 176.514 205.418 176.622C206.441 176.68 207.423 176.892 208.178 177.263C208.924 177.629 209.532 178.198 209.631 178.997L209.699 179.373C209.779 179.714 209.894 179.954 210.02 180.117C210.182 180.326 210.376 180.429 210.586 180.463C211.036 180.535 211.639 180.298 212.143 179.842L212.414 179.638C213.081 179.227 213.934 179.301 214.398 179.896C214.949 180.606 214.708 181.701 213.621 182.839C213.354 183.118 213.084 183.385 212.831 183.635C212.578 183.885 212.34 184.122 212.123 184.35C211.683 184.812 211.357 185.213 211.182 185.596C211.015 185.958 210.985 186.297 211.13 186.67C211.285 187.065 211.654 187.543 212.378 188.123C215.416 190.551 215.194 194.847 212.708 197.388L212.182 197.873C210.744 199.052 209.204 199.647 208.231 200.186C207.725 200.467 207.382 200.722 207.185 201.015C207.003 201.284 206.917 201.63 207.023 202.167L207.133 202.549C207.467 203.412 208.295 204.059 209.224 204.396C209.747 204.586 210.275 204.664 210.712 204.633C211.156 204.6 211.45 204.461 211.599 204.283C211.945 203.868 212.398 203.726 212.855 203.81C213.276 203.89 213.667 204.155 213.984 204.465C214.306 204.78 214.589 205.177 214.792 205.584C214.993 205.987 215.133 206.433 215.133 206.843C215.133 206.894 215.159 207.015 215.262 207.205C215.361 207.388 215.515 207.606 215.725 207.846C216.135 208.315 216.74 208.845 217.501 209.338L217.55 209.37C219.351 210.526 221.974 211.448 225.067 210.936C228.15 210.422 230.447 210.887 232.397 211.567C233.36 211.904 234.249 212.298 235.079 212.639C235.919 212.982 236.711 213.277 237.522 213.444C239.228 213.794 240.497 214.233 241.295 214.92C241.703 215.271 241.989 215.689 242.147 216.182C242.303 216.67 242.324 217.213 242.243 217.804C242.124 218.698 242.654 219.766 243.79 220.641C244.915 221.505 246.578 222.13 248.544 222.13C252.713 222.13 257.825 223.559 261.319 226.741L261.947 227.259C265.145 229.655 269.223 229.19 271.118 226.698L271.429 226.217C272.033 225.088 271.83 223.916 271.393 222.644C271.268 222.282 271.126 221.917 270.983 221.547C270.839 221.179 270.693 220.804 270.565 220.431C270.308 219.686 270.106 218.907 270.134 218.13C270.15 217.683 270.331 217.223 270.604 216.777C270.878 216.328 271.265 215.866 271.733 215.408C272.67 214.492 273.971 213.558 275.464 212.732C278.443 211.086 282.274 209.827 285.683 210.037L286.291 210.086C287.66 210.224 288.649 210.531 289.42 210.952C290.301 211.433 290.869 212.048 291.382 212.636C291.9 213.229 292.352 213.781 293.028 214.253C293.695 214.718 294.602 215.12 296.026 215.337C298.95 215.781 301.133 216.037 302.623 216.353C303.37 216.512 303.984 216.695 304.452 216.942C304.911 217.185 305.251 217.508 305.429 217.952L305.587 218.162C305.754 218.381 306.103 218.627 306.681 218.868C307.249 219.105 307.991 219.322 308.875 219.518C310.643 219.91 312.942 220.208 315.506 220.44C321.078 220.95 325.045 222.771 328.029 223.971C329.484 224.552 330.999 224.837 332.287 224.754C333.58 224.67 334.584 224.222 335.132 223.418C335.347 223.105 335.707 222.828 336.125 222.586C336.551 222.339 337.077 222.106 337.665 221.891C338.845 221.458 340.314 221.084 341.824 220.819C343.335 220.554 344.909 220.394 346.301 220.398C347.672 220.402 348.931 220.564 349.77 220.984C352.778 222.485 355.052 223.508 357.987 222.748C359.644 222.324 361.335 222.651 362.647 222.951C363.322 223.105 363.879 223.246 364.323 223.305C364.542 223.333 364.705 223.336 364.824 223.32C364.943 223.304 364.986 223.274 364.999 223.259L365.006 223.253C365.049 223.211 365.135 223.107 365.261 222.929C365.383 222.757 365.533 222.533 365.705 222.266L366.136 221.593L371.295 234.238L371.356 234.388L371.299 234.536L370.334 237.206L370.072 239.009L369.599 239.044C369.592 239.058 369.582 239.076 369.572 239.096C369.483 239.288 369.377 239.61 369.261 240.047C369.026 240.933 368.774 242.102 368.452 243.367C368.141 244.6 367.769 245.879 367.316 246.855C367.09 247.342 366.831 247.781 366.533 248.102C366.235 248.423 365.851 248.668 365.394 248.668C364.618 248.667 363.853 248.139 363.167 247.467C362.465 246.775 361.765 245.84 361.119 244.855C359.83 242.883 358.72 240.637 358.213 239.523C357.961 238.967 357.606 238.117 357.212 237.18C356.811 236.239 356.367 235.197 355.927 234.235C355.483 233.27 355.052 232.396 354.681 231.789C354.512 231.512 354.356 231.311 354.236 231.181C354.19 231.384 354.168 231.69 354.171 232.09C354.174 232.889 354.294 233.994 354.542 235.232C355.036 237.716 356.026 240.678 357.527 242.81C359.075 245.004 360.205 246.12 361.017 247.141C361.414 247.642 361.732 248.12 361.938 248.668C362.146 249.219 362.233 249.821 362.206 250.56C362.163 251.799 362.819 252.771 363.611 253.829C364.377 254.846 365.298 255.976 365.41 257.415C365.453 257.967 365.799 258.804 366.375 259.871C366.942 260.921 367.697 262.133 368.499 263.417C370.086 265.961 371.879 268.812 372.598 271.126C373.27 273.299 374.132 274.326 374.795 275.242C375.13 275.703 375.437 276.168 375.616 276.736C375.752 277.168 375.809 277.645 375.773 278.212L375.709 278.81C375.573 279.696 375.58 280.549 375.719 281.36L375.726 281.384C376.07 283.335 377.217 285.032 379.305 286.173C380.912 287.055 382.376 288.424 383.463 289.781C384.01 290.461 384.464 291.147 384.799 291.777C385.127 292.4 385.355 292.998 385.411 293.496L385.527 294.214C385.584 294.494 385.651 294.815 385.727 295.175C385.876 295.887 386.058 296.744 386.234 297.712C386.588 299.65 386.916 302.056 386.916 304.741C386.916 307.353 387.314 309.676 387.993 311.469C388.676 313.274 389.623 314.477 390.68 314.96C391.266 315.227 391.976 315.768 392.711 316.452C393.341 317.035 394.007 317.744 394.663 318.517L394.67 318.51L395.034 318.953L395.22 319.183L395.213 319.186C396.141 320.348 397.026 321.629 397.692 322.889C398.401 324.221 398.891 325.568 398.921 326.732C398.971 328.538 399.816 330.897 400.853 332.849C401.37 333.819 401.923 334.672 402.434 335.285C402.689 335.591 402.925 335.83 403.13 335.993C403.345 336.163 403.491 336.223 403.57 336.233C404.13 336.308 404.528 336.739 404.822 337.165C405.121 337.598 405.406 338.166 405.685 338.663C405.976 339.183 406.278 339.658 406.629 340C406.97 340.332 407.348 340.527 407.812 340.527C409.134 340.527 410.947 341.23 412.868 342.495C414.81 343.77 416.921 345.65 418.846 348.083C422.014 352.077 424.386 354.596 426.01 356.122L426.414 356.5L425.938 356.781C425.494 357.039 425.092 357.28 424.784 357.49C424.46 357.712 424.287 357.868 424.231 357.943L424.224 357.95C423.853 358.44 423.276 358.546 422.7 358.545C422.19 358.544 421.553 358.455 420.867 358.374C420.841 358.42 420.811 358.472 420.778 358.525C420.576 358.85 420.29 359.3 419.959 359.804C419.466 360.556 418.86 361.439 418.267 362.198L417.687 362.907C417.054 363.623 416.891 364.701 416.967 365.768C417.043 366.826 417.345 367.772 417.53 368.137C417.567 368.213 417.663 368.307 417.875 368.373C418.087 368.439 418.376 368.465 418.71 368.44C419.386 368.392 420.162 368.148 420.729 367.771C421.007 367.586 421.292 367.454 421.597 367.408C421.908 367.362 422.21 367.405 422.515 367.518C422.998 367.701 423.503 368.08 424.082 368.6C424.838 367.58 425.789 366.491 426.663 365.6L426.889 365.37L427.167 365.531C428.443 366.276 429.787 367.465 430.798 369.57C431.848 371.764 434.003 372.483 436.196 372.376C437.293 372.323 438.374 372.062 439.288 371.689C440.209 371.314 440.928 370.839 441.316 370.383C441.859 369.75 442.628 369.479 443.43 369.373C444.228 369.267 445.127 369.314 445.982 369.363C446.853 369.413 447.688 369.463 448.427 369.392C449.166 369.32 449.746 369.129 450.151 368.745C451.227 367.73 452.632 367.102 454.438 366.716C456.243 366.331 458.478 366.182 461.234 366.134C463.962 366.087 467.458 365.664 470.403 364.959C471.874 364.606 473.197 364.186 474.207 363.713C475.244 363.228 475.864 362.729 476.076 362.273C476.699 360.909 478.081 360.284 479.307 360.697C480.552 361.118 481.42 362.523 481.265 364.774C481.112 366.969 480.5 369.36 479.953 371.467C479.675 372.527 479.419 373.514 479.234 374.386C479.048 375.262 478.942 375.989 478.965 376.534C478.991 377.22 478.734 378.23 478.336 379.355C477.932 380.501 477.359 381.828 476.709 383.168C475.414 385.843 473.796 388.623 472.57 390.203C471.368 391.754 469.975 393.565 468.825 395.384C467.669 397.211 466.785 399.001 466.553 400.513C466.284 402.207 465.151 404.301 463.696 406.477C462.232 408.667 460.396 411.006 458.666 413.207C455.899 416.72 452.483 420.46 449.359 423.52C447.798 425.051 446.303 426.417 444.997 427.501C444.023 428.309 443.138 428.97 442.402 429.429L441.714 429.817C440.117 430.62 438.615 431.36 436.806 432.64C435.222 433.76 433.389 435.301 431.057 437.668L430.023 438.732C427.392 441.501 424.291 444.596 421.53 447.425C418.757 450.263 416.335 452.828 415.032 454.569L414.787 454.893C414.671 455.056 414.555 455.209 414.462 455.355C413.952 456.169 413.518 456.667 413.12 456.961C412.7 457.27 412.331 457.343 412 457.343C411.858 457.343 411.698 457.328 411.606 457.323C411.493 457.318 411.413 457.321 411.337 457.336C411.238 457.355 411.109 457.406 410.927 457.575L410.731 457.789C410.018 458.669 409.229 459.011 408.53 459.385C407.928 459.707 407.324 460.078 406.715 460.886L406.456 461.259C406.048 461.889 405.031 463.95 403.789 466.679C402.596 469.308 401.207 472.525 399.991 475.597L399.995 475.6L399.875 475.904C398.954 478.248 398.14 480.488 397.593 482.295C397.321 483.199 397.116 483.99 396.996 484.625C396.877 485.275 396.86 485.709 396.913 485.938L397.066 486.408C397.506 487.44 398.494 488.088 399.422 488.777C399.916 489.144 400.436 489.556 400.694 490.068C400.83 490.339 400.892 490.643 400.853 490.974C400.816 491.299 400.677 491.629 400.452 491.965C399.674 493.136 399.147 494.292 398.935 495.168C398.829 495.61 398.815 495.947 398.859 496.168C398.898 496.372 398.971 496.421 399.03 496.439C399.451 496.569 399.703 496.923 399.846 497.301C399.988 497.679 400.055 498.158 400.088 498.676C400.151 499.716 400.075 501.071 400.022 502.448C399.979 503.691 400.465 504.288 401.085 505.159C401.725 506.06 402.421 507.164 402.524 509.317C402.57 510.232 402.848 510.779 403.212 511.163C403.596 511.561 404.104 511.816 404.687 512.098C405.243 512.366 405.887 512.668 406.384 513.168C406.805 513.589 407.106 514.133 407.235 514.875L407.281 514.854L407.305 515.468C407.305 515.488 407.308 515.511 407.315 515.56C407.318 515.604 407.324 515.67 407.324 515.739C407.324 517.823 407.577 521.025 407.776 524.149C407.978 527.244 408.13 530.29 407.921 531.986C407.729 533.57 407.971 536.37 408.359 539.034C408.746 541.695 409.27 544.13 409.598 544.985L409.667 545.287C409.677 545.39 409.674 545.496 409.667 545.599C409.647 545.807 409.594 546.04 409.522 546.278C409.372 546.759 409.12 547.322 408.792 547.938C408.136 549.174 407.156 550.666 406.029 552.17C403.786 555.162 400.892 558.296 398.712 559.592C396.558 560.874 394.275 561.491 392.059 562.184C389.829 562.879 387.638 563.661 385.551 565.265C383.447 566.875 382.373 568.29 381.488 569.56C380.6 570.825 379.861 572.018 378.446 573.065C377.028 574.116 375.872 574.365 374.99 574.666C374.553 574.815 374.185 574.974 373.851 575.239C373.516 575.501 373.191 575.892 372.859 576.524C372.512 577.194 372.253 577.745 372.025 578.205C371.803 578.659 371.607 579.043 371.392 579.348C371.17 579.662 370.918 579.908 370.58 580.077C370.249 580.246 369.867 580.319 369.413 580.346C369.085 580.366 368.859 580.484 368.691 580.663C368.518 580.852 368.383 581.141 368.31 581.548C368.164 582.366 368.293 583.543 368.688 584.918C369.069 586.26 369.678 587.089 370.341 588.311C370.921 589.372 371.484 590.654 371.856 592.669L372.005 593.58L372.286 595.267C372.584 596.801 372.916 597.901 373.154 598.832C373.472 600.078 373.625 601.056 373.185 602.271C373.006 602.765 372.899 603.485 372.843 604.343C372.79 605.194 372.783 606.152 372.783 607.116C372.783 608.07 372.787 609.038 372.757 609.89C372.724 610.728 372.654 611.496 372.488 612.05C372.147 613.186 371.358 614.062 369.97 614.903C368.939 615.533 367.551 616.159 365.719 616.875L363.734 617.627C360.911 618.664 358.118 620.099 356.126 621.511C355.132 622.22 354.353 622.909 353.872 623.525C353.375 624.158 353.273 624.612 353.372 624.9C353.508 625.285 353.687 625.391 353.846 625.437C353.945 625.467 354.062 625.477 354.204 625.48C354.277 625.48 354.35 625.477 354.429 625.477C354.505 625.474 354.591 625.474 354.674 625.474C354.992 625.474 355.453 625.507 355.771 625.904C356.062 626.269 356.155 626.846 356.106 627.657C356.059 628.386 355.967 629.411 355.834 630.594L355.837 630.597L355.787 631.051C355.777 631.13 355.765 631.21 355.755 631.289L355.741 631.418L355.738 631.415C355.5 633.357 355.145 635.61 354.648 637.592C354.383 638.645 354.078 639.636 353.727 640.465C353.376 641.286 352.964 641.989 352.471 642.443C350.155 644.554 345.601 648.517 342.841 653.145C340.014 657.881 331.689 668.216 326.656 672.938C324.138 675.304 321.29 677.518 318.742 679.144C317.469 679.956 316.26 680.626 315.201 681.097C314.154 681.56 313.205 681.842 312.467 681.842C312.138 681.842 311.805 681.835 311.481 681.832C311.154 681.825 310.834 681.818 310.523 681.818C309.896 681.815 309.323 681.838 308.836 681.928C308.348 682.014 307.981 682.163 307.73 682.382C307.491 682.587 307.322 682.889 307.28 683.369V683.373C307.221 684.039 306.958 684.506 306.458 684.708C306.027 684.88 305.509 684.804 305.079 684.722C304.598 684.626 304.179 684.506 303.746 684.453C303.327 684.407 303.014 684.44 302.785 684.589L302.782 684.593C301.41 685.461 299.271 686.358 296.487 685.602L295.922 685.428C293.121 684.46 289.107 684.549 285.768 685.523C284.149 685.997 283.529 686.581 282.832 687.088C282.472 687.353 282.084 687.598 281.547 687.773C281.013 687.949 280.351 688.045 279.447 688.045C277.713 688.048 276.022 688.172 274.639 688.486C273.409 688.768 272.497 689.182 271.982 689.726L271.784 689.967C270.617 691.67 268.218 691.812 266.953 690.554L266.717 690.282C266.21 689.623 265.708 688.957 265.151 688.436C264.595 687.916 264.029 687.585 263.413 687.545C262.978 687.515 262.652 687.402 262.394 687.217C262.15 687.038 261.986 686.809 261.859 686.643C261.726 686.468 261.607 686.319 261.426 686.186C261.291 686.087 261.109 685.991 260.847 685.911L260.556 685.835C260.28 685.779 260.04 685.685 259.844 685.543C259.643 685.394 259.508 685.205 259.42 684.996C259.262 684.612 259.256 684.125 259.238 683.675C259.202 682.727 259.131 681.464 258.09 679.86C256.99 678.157 256.377 676.769 256.362 675.728C256.355 675.185 256.511 674.707 256.866 674.35C257.214 673.998 257.708 673.803 258.284 673.721L258.556 673.657C258.787 673.574 258.916 673.442 258.996 673.276C259.12 673.024 259.158 672.633 259.093 672.083C258.961 670.986 258.454 669.538 257.947 667.958L257.734 667.375C257.163 665.963 256.107 664.204 254.954 662.166C253.816 660.155 252.604 657.904 251.774 655.564L251.443 654.558C250.456 651.31 248.562 647.294 246.385 643.857L246.34 643.788C245.018 641.707 243.602 639.855 242.243 638.529C240.295 636.634 239.278 633.443 238.664 630.302C238.051 627.16 237.817 623.893 237.526 621.898C236.916 617.777 236.227 613.744 235.153 611.411C234.841 610.725 234.755 609.87 234.762 608.962C234.769 608.047 234.869 607.023 234.969 605.986C235.146 604.141 235.312 602.252 234.998 600.635L234.829 599.955C234.3 598.163 232.984 595.916 231.571 593.444C230.175 590.999 228.697 588.361 227.931 585.859C226.531 581.297 224 575.958 221.821 572.79L221.391 572.187C220.271 570.673 219.248 568.949 218.53 567.339C217.935 566.004 217.531 564.695 217.488 563.635L217.476 563.642L217.495 563.085C217.496 563.052 217.495 563.028 217.495 562.962C217.495 562.912 217.498 562.839 217.511 562.764V562.75C217.709 561.772 217.962 559.967 218.149 558.171C218.336 556.369 218.455 554.625 218.404 553.764C218.375 553.197 218.628 552.527 218.95 551.861C219.279 551.182 219.736 550.393 220.171 549.578C221.06 547.918 221.912 546.072 221.912 544.236C221.912 542.215 222.553 539.611 223.485 537.176C224.416 534.744 225.661 532.42 226.904 530.969C229.352 528.109 231.995 525.564 231.613 521.476C231.421 519.401 230.398 516.787 229.39 514.192C228.891 512.907 228.399 511.627 228.031 510.454C227.666 509.284 227.411 508.177 227.41 507.236C227.41 505.404 227.938 504.039 228.322 502.949C228.716 501.836 228.916 501.098 228.549 500.322L227.436 498.006C225.932 494.856 223.525 489.624 222.598 486.13L222.527 485.852L222.529 485.845C222.491 485.705 222.453 485.568 222.423 485.435C221.939 483.249 221.329 480.812 220.193 478.373L220.041 478.06C218.858 475.617 217.113 473.195 214.368 471.073L213.647 470.5L213.356 470.267L213.365 470.248C211.151 468.4 210.382 467.213 209.764 466.06C209.144 464.906 208.698 463.849 206.936 462.135C205.036 460.286 203.814 459.045 203.056 458.097C202.292 457.14 201.963 456.435 201.903 455.667C201.898 455.598 201.855 455.461 201.735 455.246C201.621 455.04 201.456 454.797 201.257 454.527C200.853 453.981 200.346 453.372 199.852 452.744C199.373 452.134 198.906 451.503 198.639 450.955C198.506 450.683 198.401 450.392 198.393 450.113C198.384 449.812 198.492 449.512 198.768 449.305C199.354 448.868 200.019 448.296 200.522 447.619C200.961 447.026 201.263 446.371 201.302 445.667V445.363C201.267 444.692 201.638 444.235 202.095 443.935C202.534 443.648 203.105 443.463 203.6 443.314C204.128 443.156 204.56 443.041 204.845 442.891C204.983 442.817 205.033 442.763 205.046 442.742V442.726L205.033 442.687C204.944 442.458 204.726 442.192 204.396 441.891C204.068 441.591 203.695 441.312 203.327 441.011C202.983 440.728 202.625 440.41 202.421 440.085C202.316 439.917 202.228 439.712 202.234 439.48C202.24 439.235 202.348 439.017 202.522 438.843C202.827 438.538 203.218 438.081 203.528 437.616L203.612 437.486C203.742 437.286 203.849 437.095 203.92 436.924C203.993 436.749 204.021 436.616 204.021 436.529C204.02 436.456 204.002 436.438 203.994 436.432C203.974 436.414 203.895 436.367 203.687 436.354C203.186 436.324 202.761 436.158 202.46 435.875C202.156 435.588 202.002 435.201 202.02 434.794C202.055 433.984 202.736 433.224 203.874 432.843H203.878C205.704 432.241 206.126 430.36 205.266 429.07C205.212 428.988 205.185 428.9 205.175 428.866C205.168 428.842 205.165 428.834 205.162 428.824L204.881 428.232H204.982C204.92 427.895 204.913 427.538 204.948 427.184C205.006 426.604 205.163 425.989 205.35 425.403C205.538 424.815 205.765 424.239 205.962 423.74C206.163 423.232 206.329 422.82 206.418 422.527V422.52C206.491 422.287 206.503 421.826 206.431 421.2C206.361 420.593 206.219 419.886 206.029 419.197C205.84 418.507 205.607 417.847 205.36 417.33C205.236 417.072 205.112 416.857 204.994 416.695C204.874 416.53 204.779 416.445 204.719 416.411C204.556 416.322 204.287 416.293 203.861 416.317C203.657 416.329 203.438 416.351 203.198 416.375C202.962 416.398 202.708 416.424 202.45 416.436C201.423 416.489 200.204 416.367 199.376 415.185C199.124 414.824 198.877 414.439 198.636 414.064C198.394 413.688 198.158 413.321 197.927 412.98C197.452 412.28 197.036 411.767 196.678 411.544L196.616 411.505C196.498 411.442 196.412 411.417 196.348 411.418C196.286 411.419 196.203 411.442 196.092 411.544C195.883 411.735 195.595 411.877 195.289 411.987C194.977 412.099 194.61 412.191 194.215 412.266C193.423 412.416 192.474 412.507 191.523 412.563C189.619 412.676 187.649 412.65 186.805 412.65C186.454 412.651 185.959 412.775 185.352 412.977C184.746 413.18 184.101 413.433 183.42 413.677C182.755 413.915 182.07 414.139 181.449 414.249C180.842 414.356 180.212 414.369 179.711 414.101C178.865 413.652 177.892 412.555 177.154 411.401C176.78 410.815 176.451 410.194 176.223 409.602C175.998 409.019 175.857 408.43 175.887 407.92C175.905 407.608 175.761 407.088 175.424 406.432C175.095 405.792 174.611 405.074 174.023 404.383C172.833 402.986 171.281 401.767 169.81 401.444C169.025 401.272 168.079 401.123 167.074 400.972C166.075 400.821 165.016 400.668 164.021 400.486C163.027 400.304 162.076 400.091 161.292 399.816C160.546 399.554 159.877 399.212 159.493 398.727C159.478 398.716 159.458 398.702 159.439 398.685L159.357 398.609L159.351 398.594C159.259 398.499 159.186 398.45 159.127 398.429C159.062 398.406 158.987 398.4 158.891 398.422C158.667 398.473 158.394 398.647 158.015 398.924C157.32 399.429 156.333 400.253 155.092 400.254C153.956 400.254 152.272 400.341 150.665 400.648L150.646 400.655C149.192 400.936 147.863 401.371 147.054 402.057L147.051 402.06C146.732 402.327 146.354 402.563 145.957 402.791L145.967 402.807L145.605 402.998L145.233 403.195L145.226 403.183C144.235 403.668 143.08 404.115 141.886 404.573C140.528 405.094 139.109 405.641 137.77 406.311C136.061 407.166 133.076 408.572 130.366 409.726C129.013 410.302 127.719 410.817 126.687 411.172C126.172 411.349 125.711 411.49 125.337 411.576C125.151 411.619 124.976 411.649 124.823 411.664C124.677 411.678 124.516 411.68 124.373 411.644C124.203 411.602 123.959 411.508 123.681 411.395C123.386 411.276 123.032 411.127 122.604 410.955C121.753 410.615 120.635 410.196 119.289 409.807L119.111 409.755C115.944 408.859 111.539 408.158 106.346 409.043C102.075 409.78 98.12 410.886 94.7062 411.803C91.4985 412.664 88.718 413.362 86.6417 413.398L86.6388 413.418L86.3019 413.414C86.2007 413.413 86.1003 413.406 86.0011 413.401L85.797 413.398V413.392C85.3385 413.358 84.9028 413.282 84.5118 413.13C82.7139 412.465 79.9562 410.893 77.0597 409.046C74.1488 407.19 71.0626 405.031 68.6046 403.176C66.0611 401.254 62.9498 399.285 60.2101 397.558L59.8312 397.318C59.8149 397.308 59.7996 397.296 59.7833 397.286L59.5109 397.118V397.111C57.3172 395.72 55.3901 394.503 54.3722 393.652C53.2345 392.717 52.2398 391.932 51.341 390.682C50.4403 389.429 49.6478 387.728 48.8419 384.957L48.6349 384.319C48.4424 383.772 48.2165 383.251 47.9777 382.744L47.8781 382.536C46.2431 379.147 43.6498 376.857 41.3507 375.103L40.3869 374.382C38.9587 373.334 38.2946 372.256 37.7072 371.24C37.1242 370.232 36.6304 369.313 35.5421 368.437L35.3488 368.282C35.1773 368.149 35.0151 368.018 34.8146 367.891C33.9539 367.352 33.5303 366.771 33.381 366.153C33.2391 365.565 33.3662 364.997 33.4425 364.58C33.5267 364.12 33.5473 363.846 33.423 363.619C33.3004 363.396 32.967 363.106 32.0245 362.84C30.2473 362.34 29.252 361.802 28.4816 361.086C28.1031 360.734 27.789 360.346 27.4689 359.927C27.1435 359.5 26.8157 359.047 26.3908 358.519L26.3878 358.516C26.1835 358.258 25.9709 358.011 25.7179 357.727C24.7842 356.671 24.6902 355.42 24.8449 354.241L24.8829 353.963L25.1554 353.892C26.0739 353.662 26.83 353.488 27.2101 353.465C28.1979 353.404 29.756 353.188 31.2355 352.83C31.9742 352.651 32.6866 352.438 33.2931 352.196C33.9056 351.952 34.3813 351.689 34.6749 351.423L34.8497 351.28C35.267 350.983 35.7384 350.92 36.2062 350.986C36.7193 351.059 37.2529 351.293 37.756 351.549C38.01 351.678 38.2693 351.82 38.5226 351.957C38.7789 352.095 39.0351 352.229 39.2863 352.352C39.7926 352.598 40.2641 352.781 40.7003 352.837L41.0441 352.863C41.8505 352.885 42.6751 352.656 43.3439 352.391C43.4327 352.355 43.5178 352.313 43.5997 352.277C43.065 352.201 42.2771 352.106 41.1242 352.018C39.3006 351.876 38.3032 350.694 37.4943 349.886C37.0739 349.466 36.721 349.16 36.3322 349.018C35.9727 348.889 35.5261 348.882 34.879 349.19C33.4087 349.893 32.1393 350.354 30.7658 350.585C29.3934 350.815 27.9356 350.814 26.0939 350.627L25.7023 350.588L25.7218 350.193C25.7445 349.733 25.6517 349.43 25.4464 349.235C24.6017 348.444 23.3914 346.819 22.6701 344.964C21.951 343.113 21.6779 340.925 22.8829 339.106L22.8869 339.103C23.8073 337.736 24.1326 335.905 24.3497 334.014L24.3654 333.884C24.4873 332.749 24.5722 331.578 24.7277 330.551C24.8833 329.523 25.118 328.559 25.5724 327.829C26.3181 326.634 27.6181 324.421 28.3517 321.988C29.0887 319.543 29.2232 316.978 27.7892 314.989C26.14 312.7 26.311 310.431 26.589 308.52C26.7304 307.549 26.8929 306.713 26.8956 305.954C26.8981 305.216 26.7474 304.618 26.3136 304.123L26.3107 304.119C24.9195 302.529 22.2109 300.871 22.3976 296.622H22.382L22.4113 296.308C22.4145 296.264 22.4132 296.219 22.4171 296.175L22.4494 295.797H22.4689C22.6711 294.143 23.2651 292.148 24.4533 289.661C26.7671 284.83 29.6894 280.653 32.048 277.15C33.2307 275.394 34.2685 273.812 35.0285 272.394C35.7913 270.971 36.2533 269.752 36.3224 268.718L36.3742 268.258C36.5486 267.186 37.0712 266.133 37.756 265.126C38.5408 263.972 39.566 262.842 40.6007 261.77C41.647 260.687 42.688 259.675 43.5607 258.719C44.4357 257.76 45.0788 256.917 45.3478 256.201L45.9757 254.644C46.5665 253.285 47.3496 251.826 48.4699 250.56H48.3859L49.1525 249.846C49.1891 249.811 49.2284 249.779 49.2658 249.745L49.2794 249.732C50.5379 248.594 52.1493 247.693 54.2658 247.341C56.8597 246.907 58.4145 245.785 59.7511 244.51C60.0879 244.188 60.4125 243.855 60.7374 243.519C61.0604 243.186 61.3879 242.846 61.7247 242.517C62.4016 241.855 63.1373 241.215 64.0285 240.691C65.6657 239.728 67.9556 237.546 69.6759 235.319C70.5332 234.21 71.2326 233.11 71.6368 232.168C71.8389 231.697 71.9614 231.279 71.9992 230.932C72.0269 230.671 72.0053 230.466 71.9503 230.307L71.8859 230.161C71.1967 228.992 70.5572 226.85 70.4035 224.754C70.3263 223.701 70.3688 222.635 70.6007 221.692C70.8327 220.752 71.2631 219.9 71.9826 219.324L72.381 218.972C73.231 218.138 73.5736 217.194 73.8986 216.208C74.266 215.093 74.6233 213.865 75.7853 212.927L76.1212 212.616C76.4425 212.281 76.726 211.872 76.9923 211.419C77.3574 210.797 77.6518 210.168 78.0079 209.516C78.6782 208.288 79.5346 207.038 81.1466 207.037C82.4197 207.037 84.4385 206.556 86.3956 205.707C88.3568 204.855 90.1728 203.669 91.1076 202.312L91.4855 201.714C91.8814 201.039 92.329 200.142 92.8097 199.122C93.4492 197.765 94.1297 196.223 94.8156 194.727C95.4975 193.241 96.1826 191.801 96.8185 190.676C97.1361 190.114 97.4488 189.616 97.7472 189.229C98.0361 188.854 98.3499 188.531 98.6798 188.375C99.7456 187.871 100.803 187.877 101.922 188.401C103.012 188.913 104.159 189.915 105.469 191.375C106.637 192.68 108.465 192.965 110.559 192.89C111.596 192.852 112.665 192.728 113.711 192.617C114.746 192.507 115.769 192.408 116.675 192.433C118.009 192.474 119.435 192.977 120.762 193.427C122.125 193.889 123.388 194.298 124.509 194.274L124.642 194.271C125.441 194.237 126.156 193.964 126.768 193.281C128.107 191.786 130.031 190.382 132.004 189.352C133.968 188.328 136.04 187.644 137.686 187.643C138.334 187.643 138.97 187.362 139.663 186.874C140.363 186.381 141.065 185.723 141.877 185.019C143.474 183.637 145.422 182.149 148.174 182.042C150.759 181.943 156.621 181.148 162.127 180.583C164.867 180.302 167.518 180.079 169.596 180.033C170.633 180.01 171.543 180.03 172.256 180.113C172.612 180.155 172.931 180.214 173.197 180.295C173.456 180.373 173.707 180.482 173.887 180.65L173.89 180.654C174.205 180.952 174.724 181.065 175.476 180.98C176.218 180.896 177.095 180.63 178.013 180.295C178.469 180.129 178.931 179.947 179.385 179.768C179.838 179.589 180.289 179.409 180.715 179.25C181.551 178.937 182.359 178.673 182.983 178.644C184.053 178.598 185.444 178.333 186.766 178.117C187.416 178.011 188.051 177.918 188.601 177.878C189.136 177.839 189.654 177.84 190.037 177.968C190.805 178.218 193.473 179.082 195.959 179.172L196.279 179.175C197.671 179.183 198.882 178.934 199.639 178.243L199.904 178.017ZM348.701 632.393C348.485 632.75 348.246 633.092 347.988 633.419C348.187 633.338 348.336 633.239 348.442 633.115C348.571 632.966 348.664 632.754 348.693 632.442L348.701 632.393ZM349.743 629.988C349.659 630.285 349.562 630.576 349.451 630.861C349.567 630.732 349.688 630.614 349.807 630.507C349.8 630.454 349.793 630.401 349.786 630.342C349.772 630.23 349.758 630.112 349.743 629.988Z" fill="url(#paint1_linear_4892_21847)"/>
<path d="M466.761 524.742C467.065 524.785 467.259 525.034 467.378 525.246C467.507 525.478 467.626 525.803 467.742 526.227C467.875 526.718 468.213 527.361 468.677 528.159C469.128 528.931 469.707 529.859 470.257 530.83C471.36 532.788 472.458 535.108 472.561 537.514C472.657 539.747 473.435 542.09 474.141 544.333C474.489 545.446 474.82 546.533 475.026 547.547C475.181 548.309 475.264 549.048 475.231 549.737L475.151 550.41C474.847 552.037 474.137 553.101 473.097 553.24C472.59 553.306 472.083 553.13 471.629 552.799C471.175 552.467 470.751 551.97 470.383 551.341C470.056 550.779 469.824 550.752 469.757 550.762C469.654 550.775 469.445 550.914 469.246 551.367C468.868 552.235 468.766 553.774 469.326 555.179C469.989 556.838 469.529 558.174 469.022 559.367C468.568 560.434 468.104 561.355 468.113 562.408L468.176 563.211C468.186 563.572 468.153 564.012 468.083 564.506C467.994 565.178 467.838 565.984 467.633 566.895C467.219 568.718 466.599 570.988 465.86 573.477C464.379 578.46 462.427 584.369 460.724 589.465C459.027 594.561 457.185 600.937 455.452 606.431C454.588 609.167 453.752 611.685 452.98 613.693C452.595 614.697 452.225 615.582 451.87 616.305C451.519 617.02 451.174 617.607 450.839 617.998C450.177 618.773 449.504 619.207 448.828 619.439C448.162 619.671 447.512 619.698 446.926 619.705C445.882 619.718 445.023 619.675 444.182 620.308L443.818 620.626C443.161 621.279 442.174 621.553 441.104 621.597C440.024 621.64 438.79 621.448 437.565 621.103C435.119 620.418 432.591 619.092 431.219 617.614C429.834 616.123 429.164 613.813 428.614 611.474C428.127 609.386 427.733 607.259 427.054 605.453L426.742 604.697C424.883 600.578 424.486 594.007 429.401 588.062C431.759 585.213 432.558 582.953 432.581 580.902C432.604 578.825 431.839 576.903 430.938 574.689C429.135 570.282 428.055 565.914 430.159 562.13C431.103 560.43 431.153 558.196 431.282 556.305C431.345 555.394 431.428 554.522 431.687 553.902C431.822 553.584 432.021 553.293 432.322 553.107C432.627 552.915 432.992 552.865 433.39 552.925C434.566 553.107 435.859 552.653 437.343 552.143C438.777 551.649 440.375 551.109 441.988 551.321L442.231 551.341C442.794 551.354 443.411 551.162 444.083 550.81C444.852 550.416 445.648 549.839 446.459 549.227C447.261 548.62 448.086 547.974 448.884 547.474C449.676 546.973 450.502 546.576 451.307 546.519C452.625 546.427 454.044 545.857 455.005 545.108C455.485 544.734 455.827 544.33 455.992 543.952C456.151 543.588 456.151 543.252 455.976 542.935L455.8 542.58C455.661 542.242 455.611 541.943 455.651 541.665C455.7 541.304 455.889 541.039 456.019 540.853C456.154 540.651 456.254 540.502 456.297 540.293C456.337 540.087 456.326 539.776 456.148 539.276L456.019 538.809C455.933 538.358 455.972 537.937 456.121 537.557C456.317 537.06 456.681 536.671 457.109 536.39C457.95 535.83 459.103 535.611 459.991 535.721C460.654 535.803 461.606 535.509 462.381 534.969C463.169 534.419 463.6 533.749 463.527 533.189C463.425 532.338 463.478 531.29 463.663 530.355C463.753 529.885 463.882 529.434 464.041 529.04C464.197 528.653 464.399 528.295 464.651 528.04C464.704 527.99 464.78 527.88 464.872 527.698C464.962 527.523 465.052 527.307 465.148 527.068C465.33 526.614 465.532 526.051 465.734 525.631C465.834 525.419 465.953 525.21 466.085 525.051C466.208 524.908 466.44 524.699 466.761 524.742Z" fill="url(#paint2_linear_4892_21847)"/>
<path d="M88.3123 558.476L132.468 408.427L165.586 392.213L139.601 525.167H232.669L220.781 571.701H132.468L110.39 652.921L165.586 664.768V684.402H0V664.768L55.1952 652.921L88.3123 558.476Z" fill="url(#paint3_linear_4892_21847)"/>
</g>
<defs>
<linearGradient id="paint0_linear_4892_21847" x1="481.283" y1="345.694" x2="47.5" y2="346" gradientUnits="userSpaceOnUse">
<stop stop-color="#CFD9F5"/>
<stop offset="1" stop-color="white"/>
</linearGradient>
<linearGradient id="paint1_linear_4892_21847" x1="481.283" y1="345.694" x2="47.5" y2="346" gradientUnits="userSpaceOnUse">
<stop stop-color="#CFD9F5"/>
<stop offset="1" stop-color="white"/>
</linearGradient>
<linearGradient id="paint2_linear_4892_21847" x1="481.283" y1="345.694" x2="47.5" y2="346" gradientUnits="userSpaceOnUse">
<stop stop-color="#CFD9F5"/>
<stop offset="1" stop-color="white"/>
</linearGradient>
<linearGradient id="paint3_linear_4892_21847" x1="481.283" y1="345.694" x2="47.5" y2="346" gradientUnits="userSpaceOnUse">
<stop stop-color="#CFD9F5"/>
<stop offset="1" stop-color="white"/>
</linearGradient>
</defs>
</svg>
